<svg xmlns="http://www.w3.org/2000/svg" xmlns:xlink="http://www.w3.org/1999/xlink" width="1123" zoomAndPan="magnify" viewBox="0 0 842.25 595.499986" height="794" preserveAspectRatio="xMidYMid meet" version="1.0"><defs><clipPath id="dc29ac6165"><path d="M 0.207031 0.128906 L 105.472656 0.128906 L 105.472656 106 L 0.207031 106 Z M 0.207031 0.128906 " clip-rule="nonzero"/></clipPath><clipPath id="441c9864f7"><path d="M 31.683594 31.613281 L 74.355469 31.613281 L 74.355469 74.285156 L 31.683594 74.285156 Z M 31.683594 31.613281 " clip-rule="nonzero"/></clipPath><clipPath id="ef266901ac"><path d="M 30.871094 30.800781 L 74.949219 30.800781 L 74.949219 74.878906 L 30.871094 74.878906 Z M 30.871094 30.800781 " clip-rule="nonzero"/></clipPath><clipPath id="b427edb872"><path d="M 39 20 L 84 20 L 84 66.984375 L 39 66.984375 Z M 39 20 " clip-rule="nonzero"/></clipPath><clipPath id="7b151544be"><rect x="0" width="106" y="0" height="106"/></clipPath><clipPath id="d6214e7a44"><path d="M 0.207031 95 L 105.472656 95 L 105.472656 201.3125 L 0.207031 201.3125 Z M 0.207031 95 " clip-rule="nonzero"/></clipPath><clipPath id="03193a9622"><path d="M 31.683594 32.3125 L 74.355469 32.3125 L 74.355469 74.984375 L 31.683594 74.984375 Z M 31.683594 32.3125 " clip-rule="nonzero"/></clipPath><clipPath id="b4ed7dfff3"><path d="M 30.871094 31.496094 L 74.949219 31.496094 L 74.949219 75.574219 L 30.871094 75.574219 Z M 30.871094 31.496094 " clip-rule="nonzero"/></clipPath><clipPath id="86a9fa68f7"><path d="M 39 20 L 84 20 L 84 67.679688 L 39 67.679688 Z M 39 20 " clip-rule="nonzero"/></clipPath><clipPath id="6f9ee7dbfd"><rect x="0" width="106" y="0" height="107"/></clipPath><clipPath id="8fe5257ed4"><rect x="0" width="106" y="0" height="202"/></clipPath></defs><g transform="matrix(1, 0, 0, 1, 36, 185)"><g clip-path="url(#8fe5257ed4)"><g clip-path="url(#dc29ac6165)"><g><g clip-path="url(#7b151544be)"><g clip-path="url(#441c9864f7)"><path fill="#000000" d="M 74.945312 74.875 L 30.867188 74.875 L 30.867188 30.796875 L 74.945312 30.796875 Z M 31.148438 74.59375 L 74.667969 74.59375 L 74.667969 31.078125 L 31.148438 31.078125 Z M 31.148438 74.59375 " fill-opacity="1" fill-rule="nonzero"/></g><g clip-path="url(#ef266901ac)"><path stroke-linecap="butt" transform="matrix(0.678121, 0, 0, 0.678121, 30.871724, 30.800604)" fill="none" stroke-linejoin="miter" d="M -0.000929726 0.000261335 L -0.000929726 65.311744 L 65.310553 65.311744 L 65.310553 0.000261335 L -0.000929726 0.000261335 " stroke="#004aad" stroke-width="22.10861" stroke-opacity="1" stroke-miterlimit="4"/></g><g clip-path="url(#b427edb872)"><path fill="#de1616" d="M 45.519531 41.183594 C 49.679688 45.34375 52.652344 49.507812 55.625 54.859375 C 69.5 28.695312 86.347656 16.804688 82.78125 20.964844 C 71.484375 35.433594 63.753906 50.101562 56.222656 66.75 C 51.859375 58.824219 46.3125 48.316406 39.570312 46.136719 C 37.589844 44.15625 42.347656 39.398438 45.519531 41.183594 Z M 45.519531 41.183594 " fill-opacity="1" fill-rule="nonzero"/></g></g></g></g><g clip-path="url(#d6214e7a44)"><g transform="matrix(1, 0, 0, 1, 0, 95)"><g clip-path="url(#6f9ee7dbfd)"><g clip-path="url(#03193a9622)"><path fill="#000000" d="M 74.945312 75.570312 L 30.867188 75.570312 L 30.867188 31.496094 L 74.945312 31.496094 Z M 31.148438 75.292969 L 74.667969 75.292969 L 74.667969 31.773438 L 31.148438 31.773438 Z M 31.148438 75.292969 " fill-opacity="1" fill-rule="nonzero"/></g><g clip-path="url(#b4ed7dfff3)"><path stroke-linecap="butt" transform="matrix(0.678121, 0, 0, 0.678121, 30.871724, 31.497504)" fill="none" stroke-linejoin="miter" d="M -0.000929726 -0.00207929 L -0.000929726 65.315164 L 65.310553 65.315164 L 65.310553 -0.00207929 L -0.000929726 -0.00207929 " stroke="#004aad" stroke-width="22.10861" stroke-opacity="1" stroke-miterlimit="4"/></g><g clip-path="url(#86a9fa68f7)"><path fill="#de1616" d="M 45.519531 41.878906 C 49.679688 46.042969 52.652344 50.203125 55.625 55.554688 C 69.5 29.390625 86.347656 17.5 82.78125 21.664062 C 71.484375 36.132812 63.753906 50.796875 56.222656 67.449219 C 51.859375 59.519531 46.3125 49.015625 39.570312 46.835938 C 37.589844 44.851562 42.347656 40.09375 45.519531 41.878906 Z M 45.519531 41.878906 " fill-opacity="1" fill-rule="nonzero"/></g></g></g></g></g></g></svg>