<svg xmlns="http://www.w3.org/2000/svg" xmlns:xlink="http://www.w3.org/1999/xlink" width="500" zoomAndPan="magnify" viewBox="0 0 375 374.999991" height="500" preserveAspectRatio="xMidYMid meet" version="1.0"><defs><g/><clipPath id="ef36c2b85e"><path d="M 56.144531 131.867188 L 339.730469 131.867188 L 339.730469 287.992188 L 56.144531 287.992188 Z M 56.144531 131.867188 " clip-rule="nonzero"/></clipPath><clipPath id="d7b3a149f0"><path d="M 89.6875 131.867188 L 339.257812 131.867188 L 305.714844 287.992188 L 56.144531 287.992188 Z M 89.6875 131.867188 " clip-rule="nonzero"/></clipPath><clipPath id="142c2d0423"><path d="M 0.144531 0.867188 L 283.359375 0.867188 L 283.359375 156.992188 L 0.144531 156.992188 Z M 0.144531 0.867188 " clip-rule="nonzero"/></clipPath><clipPath id="6baafc2ec4"><path d="M 33.6875 0.867188 L 283.257812 0.867188 L 249.714844 156.992188 L 0.144531 156.992188 Z M 33.6875 0.867188 " clip-rule="nonzero"/></clipPath><clipPath id="21a8efc9b3"><rect x="0" width="284" y="0" height="157"/></clipPath><clipPath id="c719c0f77f"><path d="M 46.367188 118.070312 L 329.941406 118.070312 L 329.941406 272.859375 L 46.367188 272.859375 Z M 46.367188 118.070312 " clip-rule="nonzero"/></clipPath><clipPath id="d016a59e4b"><path d="M 79.910156 118.070312 L 329.480469 118.070312 L 295.9375 272.859375 L 46.367188 272.859375 Z M 79.910156 118.070312 " clip-rule="nonzero"/></clipPath><clipPath id="595d825f8d"><path d="M 0.367188 0.0703125 L 283.519531 0.0703125 L 283.519531 154.859375 L 0.367188 154.859375 Z M 0.367188 0.0703125 " clip-rule="nonzero"/></clipPath><clipPath id="a59a0c6bb9"><path d="M 33.910156 0.0703125 L 283.480469 0.0703125 L 249.9375 154.859375 L 0.367188 154.859375 Z M 33.910156 0.0703125 " clip-rule="nonzero"/></clipPath><clipPath id="b1fe072133"><rect x="0" width="284" y="0" height="155"/></clipPath><clipPath id="2ad7230323"><rect x="0" width="162" y="0" height="52"/></clipPath></defs><g clip-path="url(#ef36c2b85e)"><g clip-path="url(#d7b3a149f0)"><g transform="matrix(1, 0, 0, 1, 56, 131)"><g clip-path="url(#21a8efc9b3)"><g clip-path="url(#142c2d0423)"><g clip-path="url(#6baafc2ec4)"><path fill="#0a1828" d="M 0.144531 0.867188 L 283.121094 0.867188 L 283.121094 156.992188 L 0.144531 156.992188 Z M 0.144531 0.867188 " fill-opacity="1" fill-rule="nonzero"/></g></g></g></g></g></g><g clip-path="url(#c719c0f77f)"><g clip-path="url(#d016a59e4b)"><g transform="matrix(1, 0, 0, 1, 46, 118)"><g clip-path="url(#b1fe072133)"><g clip-path="url(#595d825f8d)"><g clip-path="url(#a59a0c6bb9)"><path fill="#18375d" d="M 0.367188 0.0703125 L 283.335938 0.0703125 L 283.335938 154.859375 L 0.367188 154.859375 Z M 0.367188 0.0703125 " fill-opacity="1" fill-rule="nonzero"/></g></g></g></g></g></g><g transform="matrix(1, 0, 0, 1, 93, 127)"><g clip-path="url(#2ad7230323)"><g fill="#000000" fill-opacity="0.302"><g transform="translate(4.972276, 46.879288)"><g><path d="M 31.296875 -38.3125 L 29.984375 -29.875 L 17.9375 -29.875 L 16.921875 -23.46875 L 27.84375 -23.46875 L 26.53125 -15.046875 L 15.59375 -15.046875 L 13.21875 0 L 3.25 0 L 9.296875 -38.3125 Z M 31.296875 -38.3125 "/></g></g></g><g fill="#000000" fill-opacity="0.302"><g transform="translate(31.397945, 46.879288)"><g><path d="M 19.265625 -38.3125 L 13.21875 0 L 3.25 0 L 9.296875 -38.3125 Z M 19.265625 -38.3125 "/></g></g></g><g fill="#000000" fill-opacity="0.302"><g transform="translate(46.745154, 46.879288)"><g><path d="M 33.890625 -24.890625 C 32.910156 -28.960938 30.421875 -31 26.421875 -31 C 24.316406 -31 22.34375 -30.3125 20.5 -28.9375 C 18.65625 -27.5625 17.191406 -25.75 16.109375 -23.5 C 15.023438 -21.25 14.484375 -18.953125 14.484375 -16.609375 C 14.484375 -13.703125 15.242188 -11.359375 16.765625 -9.578125 C 18.285156 -7.796875 20.335938 -6.90625 22.921875 -6.90625 C 25.253906 -6.90625 27.21875 -7.5 28.8125 -8.6875 C 30.40625 -9.875 31.457031 -11.5 31.96875 -13.5625 L 23.828125 -13.5625 L 25.09375 -21.390625 L 44.875 -21.390625 C 43.988281 -16.035156 42.503906 -11.804688 40.421875 -8.703125 C 38.335938 -5.609375 35.691406 -3.171875 32.484375 -1.390625 C 29.285156 0.378906 25.640625 1.265625 21.546875 1.265625 C 16.265625 1.265625 12.019531 -0.222656 8.8125 -3.203125 C 5.613281 -6.179688 4.015625 -10.160156 4.015625 -15.140625 C 4.015625 -19.515625 5.046875 -23.582031 7.109375 -27.34375 C 9.179688 -31.101562 12.078125 -34.082031 15.796875 -36.28125 C 19.523438 -38.476562 23.710938 -39.578125 28.359375 -39.578125 C 36.453125 -39.578125 41.648438 -36.003906 43.953125 -28.859375 Z M 33.890625 -24.890625 "/></g></g></g><g fill="#000000" fill-opacity="0.302"><g transform="translate(88.416403, 46.879288)"><g><path d="M 19.265625 -38.3125 L 16.921875 -23.53125 L 31.296875 -23.53125 L 33.640625 -38.3125 L 43.59375 -38.3125 L 37.546875 0 L 27.59375 0 L 30.078125 -15.703125 L 15.703125 -15.703125 L 13.21875 0 L 3.25 0 L 9.296875 -38.3125 Z M 19.265625 -38.3125 "/></g></g></g><g fill="#000000" fill-opacity="0.302"><g transform="translate(128.105723, 46.879288)"><g><path d="M 32.78125 -38.3125 L 31.453125 -29.875 L 23.21875 -29.875 L 18.5 0 L 8.53125 0 L 13.265625 -29.875 L 5.03125 -29.875 L 6.34375 -38.3125 Z M 32.78125 -38.3125 "/></g></g></g><g fill="#000000" fill-opacity="0.502"><g transform="translate(2.726382, 44.63339)"><g><path d="M 31.296875 -38.3125 L 29.984375 -29.875 L 17.9375 -29.875 L 16.921875 -23.46875 L 27.84375 -23.46875 L 26.53125 -15.046875 L 15.59375 -15.046875 L 13.21875 0 L 3.25 0 L 9.296875 -38.3125 Z M 31.296875 -38.3125 "/></g></g></g><g fill="#000000" fill-opacity="0.502"><g transform="translate(29.152051, 44.63339)"><g><path d="M 19.265625 -38.3125 L 13.21875 0 L 3.25 0 L 9.296875 -38.3125 Z M 19.265625 -38.3125 "/></g></g></g><g fill="#000000" fill-opacity="0.502"><g transform="translate(44.499261, 44.63339)"><g><path d="M 33.890625 -24.890625 C 32.910156 -28.960938 30.421875 -31 26.421875 -31 C 24.316406 -31 22.34375 -30.3125 20.5 -28.9375 C 18.65625 -27.5625 17.191406 -25.75 16.109375 -23.5 C 15.023438 -21.25 14.484375 -18.953125 14.484375 -16.609375 C 14.484375 -13.703125 15.242188 -11.359375 16.765625 -9.578125 C 18.285156 -7.796875 20.335938 -6.90625 22.921875 -6.90625 C 25.253906 -6.90625 27.21875 -7.5 28.8125 -8.6875 C 30.40625 -9.875 31.457031 -11.5 31.96875 -13.5625 L 23.828125 -13.5625 L 25.09375 -21.390625 L 44.875 -21.390625 C 43.988281 -16.035156 42.503906 -11.804688 40.421875 -8.703125 C 38.335938 -5.609375 35.691406 -3.171875 32.484375 -1.390625 C 29.285156 0.378906 25.640625 1.265625 21.546875 1.265625 C 16.265625 1.265625 12.019531 -0.222656 8.8125 -3.203125 C 5.613281 -6.179688 4.015625 -10.160156 4.015625 -15.140625 C 4.015625 -19.515625 5.046875 -23.582031 7.109375 -27.34375 C 9.179688 -31.101562 12.078125 -34.082031 15.796875 -36.28125 C 19.523438 -38.476562 23.710938 -39.578125 28.359375 -39.578125 C 36.453125 -39.578125 41.648438 -36.003906 43.953125 -28.859375 Z M 33.890625 -24.890625 "/></g></g></g><g fill="#000000" fill-opacity="0.502"><g transform="translate(86.17051, 44.63339)"><g><path d="M 19.265625 -38.3125 L 16.921875 -23.53125 L 31.296875 -23.53125 L 33.640625 -38.3125 L 43.59375 -38.3125 L 37.546875 0 L 27.59375 0 L 30.078125 -15.703125 L 15.703125 -15.703125 L 13.21875 0 L 3.25 0 L 9.296875 -38.3125 Z M 19.265625 -38.3125 "/></g></g></g><g fill="#000000" fill-opacity="0.502"><g transform="translate(125.85983, 44.63339)"><g><path d="M 32.78125 -38.3125 L 31.453125 -29.875 L 23.21875 -29.875 L 18.5 0 L 8.53125 0 L 13.265625 -29.875 L 5.03125 -29.875 L 6.34375 -38.3125 Z M 32.78125 -38.3125 "/></g></g></g><g fill="#ffffff" fill-opacity="1"><g transform="translate(0.480484, 42.387492)"><g><path d="M 31.296875 -38.3125 L 29.984375 -29.875 L 17.9375 -29.875 L 16.921875 -23.46875 L 27.84375 -23.46875 L 26.53125 -15.046875 L 15.59375 -15.046875 L 13.21875 0 L 3.25 0 L 9.296875 -38.3125 Z M 31.296875 -38.3125 "/></g></g></g><g fill="#ffffff" fill-opacity="1"><g transform="translate(26.906153, 42.387492)"><g><path d="M 19.265625 -38.3125 L 13.21875 0 L 3.25 0 L 9.296875 -38.3125 Z M 19.265625 -38.3125 "/></g></g></g><g fill="#ffffff" fill-opacity="1"><g transform="translate(42.253363, 42.387492)"><g><path d="M 33.890625 -24.890625 C 32.910156 -28.960938 30.421875 -31 26.421875 -31 C 24.316406 -31 22.34375 -30.3125 20.5 -28.9375 C 18.65625 -27.5625 17.191406 -25.75 16.109375 -23.5 C 15.023438 -21.25 14.484375 -18.953125 14.484375 -16.609375 C 14.484375 -13.703125 15.242188 -11.359375 16.765625 -9.578125 C 18.285156 -7.796875 20.335938 -6.90625 22.921875 -6.90625 C 25.253906 -6.90625 27.21875 -7.5 28.8125 -8.6875 C 30.40625 -9.875 31.457031 -11.5 31.96875 -13.5625 L 23.828125 -13.5625 L 25.09375 -21.390625 L 44.875 -21.390625 C 43.988281 -16.035156 42.503906 -11.804688 40.421875 -8.703125 C 38.335938 -5.609375 35.691406 -3.171875 32.484375 -1.390625 C 29.285156 0.378906 25.640625 1.265625 21.546875 1.265625 C 16.265625 1.265625 12.019531 -0.222656 8.8125 -3.203125 C 5.613281 -6.179688 4.015625 -10.160156 4.015625 -15.140625 C 4.015625 -19.515625 5.046875 -23.582031 7.109375 -27.34375 C 9.179688 -31.101562 12.078125 -34.082031 15.796875 -36.28125 C 19.523438 -38.476562 23.710938 -39.578125 28.359375 -39.578125 C 36.453125 -39.578125 41.648438 -36.003906 43.953125 -28.859375 Z M 33.890625 -24.890625 "/></g></g></g><g fill="#ffffff" fill-opacity="1"><g transform="translate(83.924612, 42.387492)"><g><path d="M 19.265625 -38.3125 L 16.921875 -23.53125 L 31.296875 -23.53125 L 33.640625 -38.3125 L 43.59375 -38.3125 L 37.546875 0 L 27.59375 0 L 30.078125 -15.703125 L 15.703125 -15.703125 L 13.21875 0 L 3.25 0 L 9.296875 -38.3125 Z M 19.265625 -38.3125 "/></g></g></g><g fill="#ffffff" fill-opacity="1"><g transform="translate(123.613932, 42.387492)"><g><path d="M 32.78125 -38.3125 L 31.453125 -29.875 L 23.21875 -29.875 L 18.5 0 L 8.53125 0 L 13.265625 -29.875 L 5.03125 -29.875 L 6.34375 -38.3125 Z M 32.78125 -38.3125 "/></g></g></g></g></g><g fill="#000000" fill-opacity="0.302"><g transform="translate(116.021723, 218.922202)"><g><path d="M 34.65625 -25.453125 C 33.875 -26.804688 32.765625 -27.847656 31.328125 -28.578125 C 29.890625 -29.304688 28.304688 -29.671875 26.578125 -29.671875 C 23.359375 -29.671875 20.546875 -28.429688 18.140625 -25.953125 C 15.734375 -23.484375 14.53125 -20.554688 14.53125 -17.171875 C 14.53125 -14.628906 15.34375 -12.570312 16.96875 -11 C 18.59375 -9.425781 20.742188 -8.640625 23.421875 -8.640625 C 25.046875 -8.640625 26.679688 -9.003906 28.328125 -9.734375 C 29.972656 -10.460938 31.421875 -11.453125 32.671875 -12.703125 L 30.734375 -0.765625 C 30.023438 -0.523438 28.78125 -0.171875 27 0.296875 C 25.226562 0.773438 23.460938 1.015625 21.703125 1.015625 C 18.617188 1.015625 15.738281 0.347656 13.0625 -0.984375 C 10.382812 -2.328125 8.222656 -4.207031 6.578125 -6.625 C 4.929688 -9.050781 4.09375 -11.875 4.0625 -15.09375 C 4.0625 -19.425781 5.128906 -23.429688 7.265625 -27.109375 C 9.398438 -30.785156 12.351562 -33.738281 16.125 -35.96875 C 19.90625 -38.207031 23.796875 -39.328125 27.796875 -39.328125 C 30.640625 -39.328125 33.566406 -38.679688 36.578125 -37.390625 Z M 34.65625 -25.453125 "/></g></g></g><g fill="#000000" fill-opacity="0.302"><g transform="translate(147.830197, 218.922202)"><g><path d="M 31.453125 -38.3125 L 39.84375 0 L 29.21875 0 L 27.796875 -6.65625 L 14.078125 -6.65625 L 10.359375 0 L -0.203125 0 L 20.578125 -38.3125 Z M 18.03125 -14.28125 L 26.328125 -14.28125 L 24.1875 -26.46875 L 24.078125 -26.46875 Z M 18.03125 -14.28125 "/></g></g></g><g fill="#000000" fill-opacity="0.302"><g transform="translate(186.396738, 218.922202)"><g><path d="M 24.4375 -38.3125 C 27.894531 -38.3125 30.664062 -37.5 32.75 -35.875 C 34.832031 -34.25 35.875 -31.910156 35.875 -28.859375 C 35.875 -25.609375 34.90625 -22.738281 32.96875 -20.25 C 31.039062 -17.757812 28.570312 -16.242188 25.5625 -15.703125 L 35.109375 0 L 22.71875 0 L 15.65625 -14.734375 L 15.546875 -14.734375 L 13.21875 0 L 3.25 0 L 9.296875 -38.3125 Z M 16.5625 -21.140625 L 17.9375 -21.140625 C 20.269531 -21.140625 22.078125 -21.628906 23.359375 -22.609375 C 24.648438 -23.585938 25.296875 -25.03125 25.296875 -26.9375 C 25.296875 -29.4375 23.234375 -30.6875 19.109375 -30.6875 L 18.09375 -30.6875 Z M 16.5625 -21.140625 "/></g></g></g><g fill="#000000" fill-opacity="0.302"><g transform="translate(219.831222, 218.922202)"><g><path d="M 23.46875 -38.3125 C 26.65625 -38.3125 29.507812 -37.609375 32.03125 -36.203125 C 34.5625 -34.796875 36.546875 -32.851562 37.984375 -30.375 C 39.421875 -27.90625 40.140625 -25.265625 40.140625 -22.453125 C 40.140625 -18.597656 39.097656 -14.929688 37.015625 -11.453125 C 34.929688 -7.984375 32.109375 -5.207031 28.546875 -3.125 C 24.992188 -1.039062 21.285156 0 17.421875 0 L 3.25 0 L 9.296875 -38.3125 Z M 14.53125 -8.4375 L 16.46875 -8.4375 C 20.5 -8.4375 23.707031 -9.628906 26.09375 -12.015625 C 28.476562 -14.398438 29.671875 -17.492188 29.671875 -21.296875 C 29.671875 -23.867188 28.863281 -25.941406 27.25 -27.515625 C 25.644531 -29.085938 23.253906 -29.875 20.078125 -29.875 L 17.9375 -29.875 Z M 14.53125 -8.4375 "/></g></g></g><g fill="#000000" fill-opacity="0.502"><g transform="translate(113.775825, 216.676303)"><g><path d="M 34.65625 -25.453125 C 33.875 -26.804688 32.765625 -27.847656 31.328125 -28.578125 C 29.890625 -29.304688 28.304688 -29.671875 26.578125 -29.671875 C 23.359375 -29.671875 20.546875 -28.429688 18.140625 -25.953125 C 15.734375 -23.484375 14.53125 -20.554688 14.53125 -17.171875 C 14.53125 -14.628906 15.34375 -12.570312 16.96875 -11 C 18.59375 -9.425781 20.742188 -8.640625 23.421875 -8.640625 C 25.046875 -8.640625 26.679688 -9.003906 28.328125 -9.734375 C 29.972656 -10.460938 31.421875 -11.453125 32.671875 -12.703125 L 30.734375 -0.765625 C 30.023438 -0.523438 28.78125 -0.171875 27 0.296875 C 25.226562 0.773438 23.460938 1.015625 21.703125 1.015625 C 18.617188 1.015625 15.738281 0.347656 13.0625 -0.984375 C 10.382812 -2.328125 8.222656 -4.207031 6.578125 -6.625 C 4.929688 -9.050781 4.09375 -11.875 4.0625 -15.09375 C 4.0625 -19.425781 5.128906 -23.429688 7.265625 -27.109375 C 9.398438 -30.785156 12.351562 -33.738281 16.125 -35.96875 C 19.90625 -38.207031 23.796875 -39.328125 27.796875 -39.328125 C 30.640625 -39.328125 33.566406 -38.679688 36.578125 -37.390625 Z M 34.65625 -25.453125 "/></g></g></g><g fill="#000000" fill-opacity="0.502"><g transform="translate(145.584298, 216.676303)"><g><path d="M 31.453125 -38.3125 L 39.84375 0 L 29.21875 0 L 27.796875 -6.65625 L 14.078125 -6.65625 L 10.359375 0 L -0.203125 0 L 20.578125 -38.3125 Z M 18.03125 -14.28125 L 26.328125 -14.28125 L 24.1875 -26.46875 L 24.078125 -26.46875 Z M 18.03125 -14.28125 "/></g></g></g><g fill="#000000" fill-opacity="0.502"><g transform="translate(184.150839, 216.676303)"><g><path d="M 24.4375 -38.3125 C 27.894531 -38.3125 30.664062 -37.5 32.75 -35.875 C 34.832031 -34.25 35.875 -31.910156 35.875 -28.859375 C 35.875 -25.609375 34.90625 -22.738281 32.96875 -20.25 C 31.039062 -17.757812 28.570312 -16.242188 25.5625 -15.703125 L 35.109375 0 L 22.71875 0 L 15.65625 -14.734375 L 15.546875 -14.734375 L 13.21875 0 L 3.25 0 L 9.296875 -38.3125 Z M 16.5625 -21.140625 L 17.9375 -21.140625 C 20.269531 -21.140625 22.078125 -21.628906 23.359375 -22.609375 C 24.648438 -23.585938 25.296875 -25.03125 25.296875 -26.9375 C 25.296875 -29.4375 23.234375 -30.6875 19.109375 -30.6875 L 18.09375 -30.6875 Z M 16.5625 -21.140625 "/></g></g></g><g fill="#000000" fill-opacity="0.502"><g transform="translate(217.585323, 216.676303)"><g><path d="M 23.46875 -38.3125 C 26.65625 -38.3125 29.507812 -37.609375 32.03125 -36.203125 C 34.5625 -34.796875 36.546875 -32.851562 37.984375 -30.375 C 39.421875 -27.90625 40.140625 -25.265625 40.140625 -22.453125 C 40.140625 -18.597656 39.097656 -14.929688 37.015625 -11.453125 C 34.929688 -7.984375 32.109375 -5.207031 28.546875 -3.125 C 24.992188 -1.039062 21.285156 0 17.421875 0 L 3.25 0 L 9.296875 -38.3125 Z M 14.53125 -8.4375 L 16.46875 -8.4375 C 20.5 -8.4375 23.707031 -9.628906 26.09375 -12.015625 C 28.476562 -14.398438 29.671875 -17.492188 29.671875 -21.296875 C 29.671875 -23.867188 28.863281 -25.941406 27.25 -27.515625 C 25.644531 -29.085938 23.253906 -29.875 20.078125 -29.875 L 17.9375 -29.875 Z M 14.53125 -8.4375 "/></g></g></g><g fill="#000000" fill-opacity="0.302"><g transform="translate(87.744381, 263.922199)"><g><path d="M 47.109375 -22.859375 C 47.109375 -19.171875 46.039062 -15.34375 43.90625 -11.375 C 41.769531 -7.414062 38.753906 -4.316406 34.859375 -2.078125 C 30.960938 0.148438 26.78125 1.265625 22.3125 1.265625 C 16.925781 1.265625 12.554688 -0.316406 9.203125 -3.484375 C 5.847656 -6.648438 4.171875 -10.820312 4.171875 -16 C 4.171875 -20.269531 5.296875 -24.207031 7.546875 -27.8125 C 9.796875 -31.425781 12.859375 -34.289062 16.734375 -36.40625 C 20.617188 -38.519531 24.628906 -39.578125 28.765625 -39.578125 C 32.046875 -39.578125 35.117188 -38.863281 37.984375 -37.4375 C 40.847656 -36.019531 43.082031 -34.050781 44.6875 -31.53125 C 46.300781 -29.007812 47.109375 -26.117188 47.109375 -22.859375 Z M 23.828125 -8.390625 C 26.128906 -8.390625 28.253906 -9.019531 30.203125 -10.28125 C 32.148438 -11.550781 33.695312 -13.191406 34.84375 -15.203125 C 36 -17.222656 36.578125 -19.21875 36.578125 -21.1875 C 36.578125 -23.625 35.65625 -25.6875 33.8125 -27.375 C 31.96875 -29.070312 29.757812 -29.921875 27.1875 -29.921875 C 25.1875 -29.921875 23.203125 -29.378906 21.234375 -28.296875 C 19.273438 -27.210938 17.691406 -25.753906 16.484375 -23.921875 C 15.285156 -22.097656 14.6875 -20.066406 14.6875 -17.828125 C 14.6875 -15.085938 15.539062 -12.828125 17.25 -11.046875 C 18.957031 -9.273438 21.148438 -8.390625 23.828125 -8.390625 Z M 23.828125 -8.390625 "/></g></g></g><g fill="#000000" fill-opacity="0.302"><g transform="translate(131.697038, 263.922199)"><g><path d="M 19.265625 -38.3125 L 33.796875 -14.890625 L 33.890625 -14.890625 L 37.59375 -38.3125 L 47.5625 -38.3125 L 41.515625 0 L 31.546875 0 L 17.015625 -23.46875 L 16.921875 -23.46875 L 13.21875 0 L 3.25 0 L 9.296875 -38.3125 Z M 19.265625 -38.3125 "/></g></g></g><g fill="#000000" fill-opacity="0.302"><g transform="translate(175.344824, 263.922199)"><g><path d="M 19.265625 -38.3125 L 14.53125 -8.4375 L 26.46875 -8.4375 L 25.15625 0 L 3.25 0 L 9.296875 -38.3125 Z M 19.265625 -38.3125 "/></g></g></g><g fill="#000000" fill-opacity="0.302"><g transform="translate(199.378995, 263.922199)"><g><path d="M 19.265625 -38.3125 L 13.21875 0 L 3.25 0 L 9.296875 -38.3125 Z M 19.265625 -38.3125 "/></g></g></g><g fill="#000000" fill-opacity="0.302"><g transform="translate(214.724227, 263.922199)"><g><path d="M 19.265625 -38.3125 L 33.796875 -14.890625 L 33.890625 -14.890625 L 37.59375 -38.3125 L 47.5625 -38.3125 L 41.515625 0 L 31.546875 0 L 17.015625 -23.46875 L 16.921875 -23.46875 L 13.21875 0 L 3.25 0 L 9.296875 -38.3125 Z M 19.265625 -38.3125 "/></g></g></g><g fill="#000000" fill-opacity="0.302"><g transform="translate(258.372014, 263.922199)"><g><path d="M 31.09375 -38.3125 L 29.78125 -29.875 L 17.9375 -29.875 L 16.921875 -23.46875 L 28.15625 -23.46875 L 26.828125 -15.046875 L 15.59375 -15.046875 L 14.53125 -8.4375 L 26.375 -8.4375 L 25.046875 0 L 3.25 0 L 9.296875 -38.3125 Z M 31.09375 -38.3125 "/></g></g></g><g fill="#000000" fill-opacity="0.502"><g transform="translate(85.498483, 261.6763)"><g><path d="M 47.109375 -22.859375 C 47.109375 -19.171875 46.039062 -15.34375 43.90625 -11.375 C 41.769531 -7.414062 38.753906 -4.316406 34.859375 -2.078125 C 30.960938 0.148438 26.78125 1.265625 22.3125 1.265625 C 16.925781 1.265625 12.554688 -0.316406 9.203125 -3.484375 C 5.847656 -6.648438 4.171875 -10.820312 4.171875 -16 C 4.171875 -20.269531 5.296875 -24.207031 7.546875 -27.8125 C 9.796875 -31.425781 12.859375 -34.289062 16.734375 -36.40625 C 20.617188 -38.519531 24.628906 -39.578125 28.765625 -39.578125 C 32.046875 -39.578125 35.117188 -38.863281 37.984375 -37.4375 C 40.847656 -36.019531 43.082031 -34.050781 44.6875 -31.53125 C 46.300781 -29.007812 47.109375 -26.117188 47.109375 -22.859375 Z M 23.828125 -8.390625 C 26.128906 -8.390625 28.253906 -9.019531 30.203125 -10.28125 C 32.148438 -11.550781 33.695312 -13.191406 34.84375 -15.203125 C 36 -17.222656 36.578125 -19.21875 36.578125 -21.1875 C 36.578125 -23.625 35.65625 -25.6875 33.8125 -27.375 C 31.96875 -29.070312 29.757812 -29.921875 27.1875 -29.921875 C 25.1875 -29.921875 23.203125 -29.378906 21.234375 -28.296875 C 19.273438 -27.210938 17.691406 -25.753906 16.484375 -23.921875 C 15.285156 -22.097656 14.6875 -20.066406 14.6875 -17.828125 C 14.6875 -15.085938 15.539062 -12.828125 17.25 -11.046875 C 18.957031 -9.273438 21.148438 -8.390625 23.828125 -8.390625 Z M 23.828125 -8.390625 "/></g></g></g><g fill="#000000" fill-opacity="0.502"><g transform="translate(129.451139, 261.6763)"><g><path d="M 19.265625 -38.3125 L 33.796875 -14.890625 L 33.890625 -14.890625 L 37.59375 -38.3125 L 47.5625 -38.3125 L 41.515625 0 L 31.546875 0 L 17.015625 -23.46875 L 16.921875 -23.46875 L 13.21875 0 L 3.25 0 L 9.296875 -38.3125 Z M 19.265625 -38.3125 "/></g></g></g><g fill="#000000" fill-opacity="0.502"><g transform="translate(173.098926, 261.6763)"><g><path d="M 19.265625 -38.3125 L 14.53125 -8.4375 L 26.46875 -8.4375 L 25.15625 0 L 3.25 0 L 9.296875 -38.3125 Z M 19.265625 -38.3125 "/></g></g></g><g fill="#000000" fill-opacity="0.502"><g transform="translate(197.133096, 261.6763)"><g><path d="M 19.265625 -38.3125 L 13.21875 0 L 3.25 0 L 9.296875 -38.3125 Z M 19.265625 -38.3125 "/></g></g></g><g fill="#000000" fill-opacity="0.502"><g transform="translate(212.478329, 261.6763)"><g><path d="M 19.265625 -38.3125 L 33.796875 -14.890625 L 33.890625 -14.890625 L 37.59375 -38.3125 L 47.5625 -38.3125 L 41.515625 0 L 31.546875 0 L 17.015625 -23.46875 L 16.921875 -23.46875 L 13.21875 0 L 3.25 0 L 9.296875 -38.3125 Z M 19.265625 -38.3125 "/></g></g></g><g fill="#000000" fill-opacity="0.502"><g transform="translate(256.126115, 261.6763)"><g><path d="M 31.09375 -38.3125 L 29.78125 -29.875 L 17.9375 -29.875 L 16.921875 -23.46875 L 28.15625 -23.46875 L 26.828125 -15.046875 L 15.59375 -15.046875 L 14.53125 -8.4375 L 26.375 -8.4375 L 25.046875 0 L 3.25 0 L 9.296875 -38.3125 Z M 31.09375 -38.3125 "/></g></g></g><g fill="#ff3131" fill-opacity="1"><g transform="translate(111.529926, 214.430405)"><g><path d="M 34.65625 -25.453125 C 33.875 -26.804688 32.765625 -27.847656 31.328125 -28.578125 C 29.890625 -29.304688 28.304688 -29.671875 26.578125 -29.671875 C 23.359375 -29.671875 20.546875 -28.429688 18.140625 -25.953125 C 15.734375 -23.484375 14.53125 -20.554688 14.53125 -17.171875 C 14.53125 -14.628906 15.34375 -12.570312 16.96875 -11 C 18.59375 -9.425781 20.742188 -8.640625 23.421875 -8.640625 C 25.046875 -8.640625 26.679688 -9.003906 28.328125 -9.734375 C 29.972656 -10.460938 31.421875 -11.453125 32.671875 -12.703125 L 30.734375 -0.765625 C 30.023438 -0.523438 28.78125 -0.171875 27 0.296875 C 25.226562 0.773438 23.460938 1.015625 21.703125 1.015625 C 18.617188 1.015625 15.738281 0.347656 13.0625 -0.984375 C 10.382812 -2.328125 8.222656 -4.207031 6.578125 -6.625 C 4.929688 -9.050781 4.09375 -11.875 4.0625 -15.09375 C 4.0625 -19.425781 5.128906 -23.429688 7.265625 -27.109375 C 9.398438 -30.785156 12.351562 -33.738281 16.125 -35.96875 C 19.90625 -38.207031 23.796875 -39.328125 27.796875 -39.328125 C 30.640625 -39.328125 33.566406 -38.679688 36.578125 -37.390625 Z M 34.65625 -25.453125 "/></g></g></g><g fill="#ff3131" fill-opacity="1"><g transform="translate(143.3384, 214.430405)"><g><path d="M 31.453125 -38.3125 L 39.84375 0 L 29.21875 0 L 27.796875 -6.65625 L 14.078125 -6.65625 L 10.359375 0 L -0.203125 0 L 20.578125 -38.3125 Z M 18.03125 -14.28125 L 26.328125 -14.28125 L 24.1875 -26.46875 L 24.078125 -26.46875 Z M 18.03125 -14.28125 "/></g></g></g><g fill="#ff3131" fill-opacity="1"><g transform="translate(181.904941, 214.430405)"><g><path d="M 24.4375 -38.3125 C 27.894531 -38.3125 30.664062 -37.5 32.75 -35.875 C 34.832031 -34.25 35.875 -31.910156 35.875 -28.859375 C 35.875 -25.609375 34.90625 -22.738281 32.96875 -20.25 C 31.039062 -17.757812 28.570312 -16.242188 25.5625 -15.703125 L 35.109375 0 L 22.71875 0 L 15.65625 -14.734375 L 15.546875 -14.734375 L 13.21875 0 L 3.25 0 L 9.296875 -38.3125 Z M 16.5625 -21.140625 L 17.9375 -21.140625 C 20.269531 -21.140625 22.078125 -21.628906 23.359375 -22.609375 C 24.648438 -23.585938 25.296875 -25.03125 25.296875 -26.9375 C 25.296875 -29.4375 23.234375 -30.6875 19.109375 -30.6875 L 18.09375 -30.6875 Z M 16.5625 -21.140625 "/></g></g></g><g fill="#ff3131" fill-opacity="1"><g transform="translate(215.339425, 214.430405)"><g><path d="M 23.46875 -38.3125 C 26.65625 -38.3125 29.507812 -37.609375 32.03125 -36.203125 C 34.5625 -34.796875 36.546875 -32.851562 37.984375 -30.375 C 39.421875 -27.90625 40.140625 -25.265625 40.140625 -22.453125 C 40.140625 -18.597656 39.097656 -14.929688 37.015625 -11.453125 C 34.929688 -7.984375 32.109375 -5.207031 28.546875 -3.125 C 24.992188 -1.039062 21.285156 0 17.421875 0 L 3.25 0 L 9.296875 -38.3125 Z M 14.53125 -8.4375 L 16.46875 -8.4375 C 20.5 -8.4375 23.707031 -9.628906 26.09375 -12.015625 C 28.476562 -14.398438 29.671875 -17.492188 29.671875 -21.296875 C 29.671875 -23.867188 28.863281 -25.941406 27.25 -27.515625 C 25.644531 -29.085938 23.253906 -29.875 20.078125 -29.875 L 17.9375 -29.875 Z M 14.53125 -8.4375 "/></g></g></g><g fill="#ffffff" fill-opacity="1"><g transform="translate(83.252585, 259.430402)"><g><path d="M 47.109375 -22.859375 C 47.109375 -19.171875 46.039062 -15.34375 43.90625 -11.375 C 41.769531 -7.414062 38.753906 -4.316406 34.859375 -2.078125 C 30.960938 0.148438 26.78125 1.265625 22.3125 1.265625 C 16.925781 1.265625 12.554688 -0.316406 9.203125 -3.484375 C 5.847656 -6.648438 4.171875 -10.820312 4.171875 -16 C 4.171875 -20.269531 5.296875 -24.207031 7.546875 -27.8125 C 9.796875 -31.425781 12.859375 -34.289062 16.734375 -36.40625 C 20.617188 -38.519531 24.628906 -39.578125 28.765625 -39.578125 C 32.046875 -39.578125 35.117188 -38.863281 37.984375 -37.4375 C 40.847656 -36.019531 43.082031 -34.050781 44.6875 -31.53125 C 46.300781 -29.007812 47.109375 -26.117188 47.109375 -22.859375 Z M 23.828125 -8.390625 C 26.128906 -8.390625 28.253906 -9.019531 30.203125 -10.28125 C 32.148438 -11.550781 33.695312 -13.191406 34.84375 -15.203125 C 36 -17.222656 36.578125 -19.21875 36.578125 -21.1875 C 36.578125 -23.625 35.65625 -25.6875 33.8125 -27.375 C 31.96875 -29.070312 29.757812 -29.921875 27.1875 -29.921875 C 25.1875 -29.921875 23.203125 -29.378906 21.234375 -28.296875 C 19.273438 -27.210938 17.691406 -25.753906 16.484375 -23.921875 C 15.285156 -22.097656 14.6875 -20.066406 14.6875 -17.828125 C 14.6875 -15.085938 15.539062 -12.828125 17.25 -11.046875 C 18.957031 -9.273438 21.148438 -8.390625 23.828125 -8.390625 Z M 23.828125 -8.390625 "/></g></g></g><g fill="#ffffff" fill-opacity="1"><g transform="translate(127.205241, 259.430402)"><g><path d="M 19.265625 -38.3125 L 33.796875 -14.890625 L 33.890625 -14.890625 L 37.59375 -38.3125 L 47.5625 -38.3125 L 41.515625 0 L 31.546875 0 L 17.015625 -23.46875 L 16.921875 -23.46875 L 13.21875 0 L 3.25 0 L 9.296875 -38.3125 Z M 19.265625 -38.3125 "/></g></g></g><g fill="#ffffff" fill-opacity="1"><g transform="translate(170.853027, 259.430402)"><g><path d="M 19.265625 -38.3125 L 14.53125 -8.4375 L 26.46875 -8.4375 L 25.15625 0 L 3.25 0 L 9.296875 -38.3125 Z M 19.265625 -38.3125 "/></g></g></g><g fill="#ffffff" fill-opacity="1"><g transform="translate(194.887198, 259.430402)"><g><path d="M 19.265625 -38.3125 L 13.21875 0 L 3.25 0 L 9.296875 -38.3125 Z M 19.265625 -38.3125 "/></g></g></g><g fill="#ffffff" fill-opacity="1"><g transform="translate(210.232431, 259.430402)"><g><path d="M 19.265625 -38.3125 L 33.796875 -14.890625 L 33.890625 -14.890625 L 37.59375 -38.3125 L 47.5625 -38.3125 L 41.515625 0 L 31.546875 0 L 17.015625 -23.46875 L 16.921875 -23.46875 L 13.21875 0 L 3.25 0 L 9.296875 -38.3125 Z M 19.265625 -38.3125 "/></g></g></g><g fill="#ffffff" fill-opacity="1"><g transform="translate(253.880217, 259.430402)"><g><path d="M 31.09375 -38.3125 L 29.78125 -29.875 L 17.9375 -29.875 L 16.921875 -23.46875 L 28.15625 -23.46875 L 26.828125 -15.046875 L 15.59375 -15.046875 L 14.53125 -8.4375 L 26.375 -8.4375 L 25.046875 0 L 3.25 0 L 9.296875 -38.3125 Z M 31.09375 -38.3125 "/></g></g></g></svg>