<svg xmlns="http://www.w3.org/2000/svg" xmlns:xlink="http://www.w3.org/1999/xlink" width="500" zoomAndPan="magnify" viewBox="0 0 375 374.999991" height="500" preserveAspectRatio="xMidYMid meet" version="1.0"><defs><g/><clipPath id="b0480fd4a3"><path d="M 23.171875 130.933594 L 375 130.933594 L 375 266.050781 L 23.171875 266.050781 Z M 23.171875 130.933594 " clip-rule="nonzero"/></clipPath><clipPath id="8eb526617c"><path d="M 63.957031 130.933594 L 375 130.933594 L 334.214844 266.050781 L 23.171875 266.050781 Z M 63.957031 130.933594 " clip-rule="nonzero"/></clipPath><clipPath id="1445cd7bc8"><path d="M 0.171875 0.933594 L 352 0.933594 L 352 136.050781 L 0.171875 136.050781 Z M 0.171875 0.933594 " clip-rule="nonzero"/></clipPath><clipPath id="1aff377998"><path d="M 40.957031 0.933594 L 352 0.933594 L 311.214844 136.050781 L 0.171875 136.050781 Z M 40.957031 0.933594 " clip-rule="nonzero"/></clipPath><clipPath id="88ae525e3c"><rect x="0" width="352" y="0" height="137"/></clipPath><clipPath id="040673b38d"><path d="M 11.015625 118.992188 L 363 118.992188 L 363 252.953125 L 11.015625 252.953125 Z M 11.015625 118.992188 " clip-rule="nonzero"/></clipPath><clipPath id="074bd11501"><path d="M 51.804688 118.992188 L 362.847656 118.992188 L 322.0625 252.953125 L 11.015625 252.953125 Z M 51.804688 118.992188 " clip-rule="nonzero"/></clipPath><clipPath id="b9e7c593f3"><path d="M 0.015625 0.992188 L 351.878906 0.992188 L 351.878906 134.953125 L 0.015625 134.953125 Z M 0.015625 0.992188 " clip-rule="nonzero"/></clipPath><clipPath id="3914e1f87c"><path d="M 40.804688 0.992188 L 351.847656 0.992188 L 311.0625 134.953125 L 0.015625 134.953125 Z M 40.804688 0.992188 " clip-rule="nonzero"/></clipPath><clipPath id="fafe46ba2d"><rect x="0" width="352" y="0" height="135"/></clipPath><clipPath id="2edf83f78a"><rect x="0" width="197" y="0" height="63"/></clipPath><clipPath id="c948f3e30a"><path d="M 233 10 L 279.960938 10 L 279.960938 59 L 233 59 Z M 233 10 " clip-rule="nonzero"/></clipPath><clipPath id="87ea34b464"><rect x="0" width="280" y="0" height="63"/></clipPath></defs><g clip-path="url(#b0480fd4a3)"><g clip-path="url(#8eb526617c)"><g transform="matrix(1, 0, 0, 1, 23, 130)"><g clip-path="url(#88ae525e3c)"><g clip-path="url(#1445cd7bc8)"><g clip-path="url(#1aff377998)"><path fill="#0a1828" d="M 0.171875 0.933594 L 352.210938 0.933594 L 352.210938 136.050781 L 0.171875 136.050781 Z M 0.171875 0.933594 " fill-opacity="1" fill-rule="nonzero"/></g></g></g></g></g></g><g clip-path="url(#040673b38d)"><g clip-path="url(#074bd11501)"><g transform="matrix(1, 0, 0, 1, 11, 118)"><g clip-path="url(#fafe46ba2d)"><g clip-path="url(#b9e7c593f3)"><g clip-path="url(#3914e1f87c)"><path fill="#18375d" d="M 0.015625 0.992188 L 351.660156 0.992188 L 351.660156 134.953125 L 0.015625 134.953125 Z M 0.015625 0.992188 " fill-opacity="1" fill-rule="nonzero"/></g></g></g></g></g></g><g transform="matrix(1, 0, 0, 1, 71, 130)"><g clip-path="url(#2edf83f78a)"><g fill="#000000" fill-opacity="0.302"><g transform="translate(6.042062, 56.850501)"><g><path d="M 38.0625 -46.59375 L 36.453125 -36.34375 L 21.8125 -36.34375 L 20.578125 -28.546875 L 33.859375 -28.546875 L 32.265625 -18.296875 L 18.96875 -18.296875 L 16.0625 0 L 3.953125 0 L 11.3125 -46.59375 Z M 38.0625 -46.59375 "/></g></g></g><g fill="#000000" fill-opacity="0.302"><g transform="translate(38.173209, 56.850501)"><g><path d="M 23.421875 -46.59375 L 16.0625 0 L 3.953125 0 L 11.3125 -46.59375 Z M 23.421875 -46.59375 "/></g></g></g><g fill="#000000" fill-opacity="0.302"><g transform="translate(56.833983, 56.850501)"><g><path d="M 41.21875 -30.28125 C 40.019531 -35.226562 36.992188 -37.703125 32.140625 -37.703125 C 29.578125 -37.703125 27.171875 -36.863281 24.921875 -35.1875 C 22.679688 -33.519531 20.898438 -31.316406 19.578125 -28.578125 C 18.265625 -25.835938 17.609375 -23.046875 17.609375 -20.203125 C 17.609375 -16.660156 18.535156 -13.804688 20.390625 -11.640625 C 22.242188 -9.484375 24.738281 -8.40625 27.875 -8.40625 C 30.71875 -8.40625 33.101562 -9.125 35.03125 -10.5625 C 36.96875 -12.007812 38.25 -13.988281 38.875 -16.5 L 28.984375 -16.5 L 30.53125 -26.015625 L 54.5625 -26.015625 C 53.488281 -19.503906 51.6875 -14.363281 49.15625 -10.59375 C 46.625 -6.820312 43.410156 -3.851562 39.515625 -1.6875 C 35.617188 0.46875 31.179688 1.546875 26.203125 1.546875 C 19.773438 1.546875 14.613281 -0.265625 10.71875 -3.890625 C 6.820312 -7.515625 4.875 -12.359375 4.875 -18.421875 C 4.875 -23.734375 6.128906 -28.675781 8.640625 -33.25 C 11.160156 -37.820312 14.6875 -41.445312 19.21875 -44.125 C 23.75 -46.800781 28.835938 -48.140625 34.484375 -48.140625 C 44.328125 -48.140625 50.648438 -43.789062 53.453125 -35.09375 Z M 41.21875 -30.28125 "/></g></g></g><g fill="#000000" fill-opacity="0.302"><g transform="translate(107.502331, 56.850501)"><g><path d="M 23.421875 -46.59375 L 20.578125 -28.609375 L 38.0625 -28.609375 L 40.90625 -46.59375 L 53.015625 -46.59375 L 45.671875 0 L 33.5625 0 L 36.578125 -19.09375 L 19.09375 -19.09375 L 16.0625 0 L 3.953125 0 L 11.3125 -46.59375 Z M 23.421875 -46.59375 "/></g></g></g><g fill="#000000" fill-opacity="0.302"><g transform="translate(155.760839, 56.850501)"><g><path d="M 39.859375 -46.59375 L 38.25 -36.34375 L 28.234375 -36.34375 L 22.5 0 L 10.375 0 L 16.125 -36.34375 L 6.125 -36.34375 L 7.71875 -46.59375 Z M 39.859375 -46.59375 "/></g></g></g><g fill="#000000" fill-opacity="0.502"><g transform="translate(3.311263, 54.11971)"><g><path d="M 38.0625 -46.59375 L 36.453125 -36.34375 L 21.8125 -36.34375 L 20.578125 -28.546875 L 33.859375 -28.546875 L 32.265625 -18.296875 L 18.96875 -18.296875 L 16.0625 0 L 3.953125 0 L 11.3125 -46.59375 Z M 38.0625 -46.59375 "/></g></g></g><g fill="#000000" fill-opacity="0.502"><g transform="translate(35.44241, 54.11971)"><g><path d="M 23.421875 -46.59375 L 16.0625 0 L 3.953125 0 L 11.3125 -46.59375 Z M 23.421875 -46.59375 "/></g></g></g><g fill="#000000" fill-opacity="0.502"><g transform="translate(54.103184, 54.11971)"><g><path d="M 41.21875 -30.28125 C 40.019531 -35.226562 36.992188 -37.703125 32.140625 -37.703125 C 29.578125 -37.703125 27.171875 -36.863281 24.921875 -35.1875 C 22.679688 -33.519531 20.898438 -31.316406 19.578125 -28.578125 C 18.265625 -25.835938 17.609375 -23.046875 17.609375 -20.203125 C 17.609375 -16.660156 18.535156 -13.804688 20.390625 -11.640625 C 22.242188 -9.484375 24.738281 -8.40625 27.875 -8.40625 C 30.71875 -8.40625 33.101562 -9.125 35.03125 -10.5625 C 36.96875 -12.007812 38.25 -13.988281 38.875 -16.5 L 28.984375 -16.5 L 30.53125 -26.015625 L 54.5625 -26.015625 C 53.488281 -19.503906 51.6875 -14.363281 49.15625 -10.59375 C 46.625 -6.820312 43.410156 -3.851562 39.515625 -1.6875 C 35.617188 0.46875 31.179688 1.546875 26.203125 1.546875 C 19.773438 1.546875 14.613281 -0.265625 10.71875 -3.890625 C 6.820312 -7.515625 4.875 -12.359375 4.875 -18.421875 C 4.875 -23.734375 6.128906 -28.675781 8.640625 -33.25 C 11.160156 -37.820312 14.6875 -41.445312 19.21875 -44.125 C 23.75 -46.800781 28.835938 -48.140625 34.484375 -48.140625 C 44.328125 -48.140625 50.648438 -43.789062 53.453125 -35.09375 Z M 41.21875 -30.28125 "/></g></g></g><g fill="#000000" fill-opacity="0.502"><g transform="translate(104.771532, 54.11971)"><g><path d="M 23.421875 -46.59375 L 20.578125 -28.609375 L 38.0625 -28.609375 L 40.90625 -46.59375 L 53.015625 -46.59375 L 45.671875 0 L 33.5625 0 L 36.578125 -19.09375 L 19.09375 -19.09375 L 16.0625 0 L 3.953125 0 L 11.3125 -46.59375 Z M 23.421875 -46.59375 "/></g></g></g><g fill="#000000" fill-opacity="0.502"><g transform="translate(153.03004, 54.11971)"><g><path d="M 39.859375 -46.59375 L 38.25 -36.34375 L 28.234375 -36.34375 L 22.5 0 L 10.375 0 L 16.125 -36.34375 L 6.125 -36.34375 L 7.71875 -46.59375 Z M 39.859375 -46.59375 "/></g></g></g><g fill="#ffffff" fill-opacity="1"><g transform="translate(0.580459, 51.388904)"><g><path d="M 38.0625 -46.59375 L 36.453125 -36.34375 L 21.8125 -36.34375 L 20.578125 -28.546875 L 33.859375 -28.546875 L 32.265625 -18.296875 L 18.96875 -18.296875 L 16.0625 0 L 3.953125 0 L 11.3125 -46.59375 Z M 38.0625 -46.59375 "/></g></g></g><g fill="#ffffff" fill-opacity="1"><g transform="translate(32.711606, 51.388904)"><g><path d="M 23.421875 -46.59375 L 16.0625 0 L 3.953125 0 L 11.3125 -46.59375 Z M 23.421875 -46.59375 "/></g></g></g><g fill="#ffffff" fill-opacity="1"><g transform="translate(51.37238, 51.388904)"><g><path d="M 41.21875 -30.28125 C 40.019531 -35.226562 36.992188 -37.703125 32.140625 -37.703125 C 29.578125 -37.703125 27.171875 -36.863281 24.921875 -35.1875 C 22.679688 -33.519531 20.898438 -31.316406 19.578125 -28.578125 C 18.265625 -25.835938 17.609375 -23.046875 17.609375 -20.203125 C 17.609375 -16.660156 18.535156 -13.804688 20.390625 -11.640625 C 22.242188 -9.484375 24.738281 -8.40625 27.875 -8.40625 C 30.71875 -8.40625 33.101562 -9.125 35.03125 -10.5625 C 36.96875 -12.007812 38.25 -13.988281 38.875 -16.5 L 28.984375 -16.5 L 30.53125 -26.015625 L 54.5625 -26.015625 C 53.488281 -19.503906 51.6875 -14.363281 49.15625 -10.59375 C 46.625 -6.820312 43.410156 -3.851562 39.515625 -1.6875 C 35.617188 0.46875 31.179688 1.546875 26.203125 1.546875 C 19.773438 1.546875 14.613281 -0.265625 10.71875 -3.890625 C 6.820312 -7.515625 4.875 -12.359375 4.875 -18.421875 C 4.875 -23.734375 6.128906 -28.675781 8.640625 -33.25 C 11.160156 -37.820312 14.6875 -41.445312 19.21875 -44.125 C 23.75 -46.800781 28.835938 -48.140625 34.484375 -48.140625 C 44.328125 -48.140625 50.648438 -43.789062 53.453125 -35.09375 Z M 41.21875 -30.28125 "/></g></g></g><g fill="#ffffff" fill-opacity="1"><g transform="translate(102.040728, 51.388904)"><g><path d="M 23.421875 -46.59375 L 20.578125 -28.609375 L 38.0625 -28.609375 L 40.90625 -46.59375 L 53.015625 -46.59375 L 45.671875 0 L 33.5625 0 L 36.578125 -19.09375 L 19.09375 -19.09375 L 16.0625 0 L 3.953125 0 L 11.3125 -46.59375 Z M 23.421875 -46.59375 "/></g></g></g><g fill="#ffffff" fill-opacity="1"><g transform="translate(150.299236, 51.388904)"><g><path d="M 39.859375 -46.59375 L 38.25 -36.34375 L 28.234375 -36.34375 L 22.5 0 L 10.375 0 L 16.125 -36.34375 L 6.125 -36.34375 L 7.71875 -46.59375 Z M 39.859375 -46.59375 "/></g></g></g></g></g><g transform="matrix(1, 0, 0, 1, 45, 187)"><g clip-path="url(#87ea34b464)"><g fill="#000000" fill-opacity="0.302"><g transform="translate(5.883629, 57.299955)"><g><path d="M 42.140625 -30.953125 C 41.191406 -32.609375 39.84375 -33.878906 38.09375 -34.765625 C 36.34375 -35.648438 34.414062 -36.09375 32.3125 -36.09375 C 28.40625 -36.09375 24.988281 -34.585938 22.0625 -31.578125 C 19.132812 -28.566406 17.671875 -25.003906 17.671875 -20.890625 C 17.671875 -17.796875 18.660156 -15.289062 20.640625 -13.375 C 22.617188 -11.457031 25.234375 -10.5 28.484375 -10.5 C 30.460938 -10.5 32.453125 -10.941406 34.453125 -11.828125 C 36.453125 -12.710938 38.210938 -13.921875 39.734375 -15.453125 L 37.390625 -0.921875 C 36.523438 -0.640625 35.007812 -0.210938 32.84375 0.359375 C 30.675781 0.941406 28.523438 1.234375 26.390625 1.234375 C 22.640625 1.234375 19.132812 0.421875 15.875 -1.203125 C 12.625 -2.828125 10 -5.113281 8 -8.0625 C 6 -11.007812 4.976562 -14.441406 4.9375 -18.359375 C 4.9375 -23.628906 6.234375 -28.5 8.828125 -32.96875 C 11.429688 -37.4375 15.03125 -41.03125 19.625 -43.75 C 24.21875 -46.46875 28.941406 -47.828125 33.796875 -47.828125 C 37.265625 -47.828125 40.832031 -47.046875 44.5 -45.484375 Z M 42.140625 -30.953125 "/></g></g></g><g fill="#000000" fill-opacity="0.302"><g transform="translate(44.564587, 57.299955)"><g><path d="M 38.25 -46.59375 L 48.453125 0 L 35.53125 0 L 33.796875 -8.09375 L 17.125 -8.09375 L 12.609375 0 L -0.25 0 L 25.03125 -46.59375 Z M 21.9375 -17.359375 L 32.015625 -17.359375 L 29.421875 -32.203125 L 29.296875 -32.203125 Z M 21.9375 -17.359375 "/></g></g></g><g fill="#000000" fill-opacity="0.302"><g transform="translate(91.463705, 57.299955)"><g><path d="M 29.71875 -46.59375 C 33.925781 -46.59375 37.296875 -45.601562 39.828125 -43.625 C 42.359375 -41.644531 43.625 -38.800781 43.625 -35.09375 C 43.625 -31.144531 42.445312 -27.65625 40.09375 -24.625 C 37.75 -21.59375 34.742188 -19.75 31.078125 -19.09375 L 42.703125 0 L 27.625 0 L 19.03125 -17.921875 L 18.90625 -17.921875 L 16.0625 0 L 3.953125 0 L 11.3125 -46.59375 Z M 20.140625 -25.703125 L 21.8125 -25.703125 C 24.65625 -25.703125 26.859375 -26.300781 28.421875 -27.5 C 29.992188 -28.695312 30.78125 -30.445312 30.78125 -32.75 C 30.78125 -35.800781 28.265625 -37.328125 23.234375 -37.328125 L 22 -37.328125 Z M 20.140625 -25.703125 "/></g></g></g><g fill="#000000" fill-opacity="0.302"><g transform="translate(132.121962, 57.299955)"><g><path d="M 28.546875 -46.59375 C 32.421875 -46.59375 35.890625 -45.738281 38.953125 -44.03125 C 42.023438 -42.320312 44.4375 -39.960938 46.1875 -36.953125 C 47.9375 -33.941406 48.8125 -30.726562 48.8125 -27.3125 C 48.8125 -22.613281 47.546875 -18.148438 45.015625 -13.921875 C 42.484375 -9.703125 39.050781 -6.328125 34.71875 -3.796875 C 30.394531 -1.265625 25.890625 0 21.203125 0 L 3.953125 0 L 11.3125 -46.59375 Z M 17.671875 -10.265625 L 20.015625 -10.265625 C 24.921875 -10.265625 28.828125 -11.710938 31.734375 -14.609375 C 34.640625 -17.515625 36.09375 -21.273438 36.09375 -25.890625 C 36.09375 -29.023438 35.113281 -31.550781 33.15625 -33.46875 C 31.195312 -35.382812 28.28125 -36.34375 24.40625 -36.34375 L 21.8125 -36.34375 Z M 17.671875 -10.265625 "/></g></g></g><g fill="#000000" fill-opacity="0.302"><g transform="translate(175.004676, 57.299955)"><g><path d="M 18.90625 -7.234375 C 18.90625 -4.960938 18.03125 -2.984375 16.28125 -1.296875 C 14.53125 0.390625 12.582031 1.234375 10.4375 1.234375 C 8.707031 1.234375 7.242188 0.660156 6.046875 -0.484375 C 4.859375 -1.640625 4.265625 -3.125 4.265625 -4.9375 C 4.265625 -7.164062 5.140625 -9.101562 6.890625 -10.75 C 8.640625 -12.394531 10.585938 -13.21875 12.734375 -13.21875 C 14.503906 -13.21875 15.972656 -12.648438 17.140625 -11.515625 C 18.316406 -10.390625 18.90625 -8.960938 18.90625 -7.234375 Z M 18.90625 -7.234375 "/></g></g></g><g fill="#000000" fill-opacity="0.302"><g transform="translate(194.839486, 57.299955)"><g><path d="M 37.8125 -46.59375 L 36.21875 -36.34375 L 21.8125 -36.34375 L 20.578125 -28.546875 L 34.234375 -28.546875 L 32.625 -18.296875 L 18.96875 -18.296875 L 17.671875 -10.265625 L 32.078125 -10.265625 L 30.46875 0 L 3.953125 0 L 11.3125 -46.59375 Z M 37.8125 -46.59375 "/></g></g></g><g clip-path="url(#c948f3e30a)"><g fill="#000000" fill-opacity="0.302"><g transform="translate(227.464946, 57.299955)"><g><path d="M 23.171875 -46.59375 L 19.34375 -22 C 18.96875 -19.769531 18.78125 -17.957031 18.78125 -16.5625 C 18.78125 -14.21875 19.285156 -12.4375 20.296875 -11.21875 C 21.304688 -10 23.046875 -9.390625 25.515625 -9.390625 C 28.523438 -9.390625 30.820312 -10.367188 32.40625 -12.328125 C 34 -14.285156 35.101562 -17.363281 35.71875 -21.5625 L 39.609375 -46.59375 L 51.71875 -46.59375 L 47.515625 -19.78125 C 46.691406 -14.34375 45.269531 -10.203125 43.25 -7.359375 C 41.238281 -4.515625 38.550781 -2.367188 35.1875 -0.921875 C 31.832031 0.515625 28.054688 1.234375 23.859375 1.234375 C 18.171875 1.234375 13.800781 0.0078125 10.75 -2.4375 C 7.707031 -4.894531 6.1875 -8.46875 6.1875 -13.15625 C 6.1875 -14.019531 6.222656 -14.96875 6.296875 -16 C 6.378906 -17.03125 7.96875 -27.226562 11.0625 -46.59375 Z M 23.171875 -46.59375 "/></g></g></g></g><g fill="#000000" fill-opacity="0.502"><g transform="translate(3.152827, 54.569164)"><g><path d="M 42.140625 -30.953125 C 41.191406 -32.609375 39.84375 -33.878906 38.09375 -34.765625 C 36.34375 -35.648438 34.414062 -36.09375 32.3125 -36.09375 C 28.40625 -36.09375 24.988281 -34.585938 22.0625 -31.578125 C 19.132812 -28.566406 17.671875 -25.003906 17.671875 -20.890625 C 17.671875 -17.796875 18.660156 -15.289062 20.640625 -13.375 C 22.617188 -11.457031 25.234375 -10.5 28.484375 -10.5 C 30.460938 -10.5 32.453125 -10.941406 34.453125 -11.828125 C 36.453125 -12.710938 38.210938 -13.921875 39.734375 -15.453125 L 37.390625 -0.921875 C 36.523438 -0.640625 35.007812 -0.210938 32.84375 0.359375 C 30.675781 0.941406 28.523438 1.234375 26.390625 1.234375 C 22.640625 1.234375 19.132812 0.421875 15.875 -1.203125 C 12.625 -2.828125 10 -5.113281 8 -8.0625 C 6 -11.007812 4.976562 -14.441406 4.9375 -18.359375 C 4.9375 -23.628906 6.234375 -28.5 8.828125 -32.96875 C 11.429688 -37.4375 15.03125 -41.03125 19.625 -43.75 C 24.21875 -46.46875 28.941406 -47.828125 33.796875 -47.828125 C 37.265625 -47.828125 40.832031 -47.046875 44.5 -45.484375 Z M 42.140625 -30.953125 "/></g></g></g><g fill="#000000" fill-opacity="0.502"><g transform="translate(41.833785, 54.569164)"><g><path d="M 38.25 -46.59375 L 48.453125 0 L 35.53125 0 L 33.796875 -8.09375 L 17.125 -8.09375 L 12.609375 0 L -0.25 0 L 25.03125 -46.59375 Z M 21.9375 -17.359375 L 32.015625 -17.359375 L 29.421875 -32.203125 L 29.296875 -32.203125 Z M 21.9375 -17.359375 "/></g></g></g><g fill="#000000" fill-opacity="0.502"><g transform="translate(88.732903, 54.569164)"><g><path d="M 29.71875 -46.59375 C 33.925781 -46.59375 37.296875 -45.601562 39.828125 -43.625 C 42.359375 -41.644531 43.625 -38.800781 43.625 -35.09375 C 43.625 -31.144531 42.445312 -27.65625 40.09375 -24.625 C 37.75 -21.59375 34.742188 -19.75 31.078125 -19.09375 L 42.703125 0 L 27.625 0 L 19.03125 -17.921875 L 18.90625 -17.921875 L 16.0625 0 L 3.953125 0 L 11.3125 -46.59375 Z M 20.140625 -25.703125 L 21.8125 -25.703125 C 24.65625 -25.703125 26.859375 -26.300781 28.421875 -27.5 C 29.992188 -28.695312 30.78125 -30.445312 30.78125 -32.75 C 30.78125 -35.800781 28.265625 -37.328125 23.234375 -37.328125 L 22 -37.328125 Z M 20.140625 -25.703125 "/></g></g></g><g fill="#000000" fill-opacity="0.502"><g transform="translate(129.391161, 54.569164)"><g><path d="M 28.546875 -46.59375 C 32.421875 -46.59375 35.890625 -45.738281 38.953125 -44.03125 C 42.023438 -42.320312 44.4375 -39.960938 46.1875 -36.953125 C 47.9375 -33.941406 48.8125 -30.726562 48.8125 -27.3125 C 48.8125 -22.613281 47.546875 -18.148438 45.015625 -13.921875 C 42.484375 -9.703125 39.050781 -6.328125 34.71875 -3.796875 C 30.394531 -1.265625 25.890625 0 21.203125 0 L 3.953125 0 L 11.3125 -46.59375 Z M 17.671875 -10.265625 L 20.015625 -10.265625 C 24.921875 -10.265625 28.828125 -11.710938 31.734375 -14.609375 C 34.640625 -17.515625 36.09375 -21.273438 36.09375 -25.890625 C 36.09375 -29.023438 35.113281 -31.550781 33.15625 -33.46875 C 31.195312 -35.382812 28.28125 -36.34375 24.40625 -36.34375 L 21.8125 -36.34375 Z M 17.671875 -10.265625 "/></g></g></g><g fill="#000000" fill-opacity="0.502"><g transform="translate(172.273874, 54.569164)"><g><path d="M 18.90625 -7.234375 C 18.90625 -4.960938 18.03125 -2.984375 16.28125 -1.296875 C 14.53125 0.390625 12.582031 1.234375 10.4375 1.234375 C 8.707031 1.234375 7.242188 0.660156 6.046875 -0.484375 C 4.859375 -1.640625 4.265625 -3.125 4.265625 -4.9375 C 4.265625 -7.164062 5.140625 -9.101562 6.890625 -10.75 C 8.640625 -12.394531 10.585938 -13.21875 12.734375 -13.21875 C 14.503906 -13.21875 15.972656 -12.648438 17.140625 -11.515625 C 18.316406 -10.390625 18.90625 -8.960938 18.90625 -7.234375 Z M 18.90625 -7.234375 "/></g></g></g><g fill="#000000" fill-opacity="0.502"><g transform="translate(192.108685, 54.569164)"><g><path d="M 37.8125 -46.59375 L 36.21875 -36.34375 L 21.8125 -36.34375 L 20.578125 -28.546875 L 34.234375 -28.546875 L 32.625 -18.296875 L 18.96875 -18.296875 L 17.671875 -10.265625 L 32.078125 -10.265625 L 30.46875 0 L 3.953125 0 L 11.3125 -46.59375 Z M 37.8125 -46.59375 "/></g></g></g><g fill="#000000" fill-opacity="0.502"><g transform="translate(224.734145, 54.569164)"><g><path d="M 23.171875 -46.59375 L 19.34375 -22 C 18.96875 -19.769531 18.78125 -17.957031 18.78125 -16.5625 C 18.78125 -14.21875 19.285156 -12.4375 20.296875 -11.21875 C 21.304688 -10 23.046875 -9.390625 25.515625 -9.390625 C 28.523438 -9.390625 30.820312 -10.367188 32.40625 -12.328125 C 34 -14.285156 35.101562 -17.363281 35.71875 -21.5625 L 39.609375 -46.59375 L 51.71875 -46.59375 L 47.515625 -19.78125 C 46.691406 -14.34375 45.269531 -10.203125 43.25 -7.359375 C 41.238281 -4.515625 38.550781 -2.367188 35.1875 -0.921875 C 31.832031 0.515625 28.054688 1.234375 23.859375 1.234375 C 18.171875 1.234375 13.800781 0.0078125 10.75 -2.4375 C 7.707031 -4.894531 6.1875 -8.46875 6.1875 -13.15625 C 6.1875 -14.019531 6.222656 -14.96875 6.296875 -16 C 6.378906 -17.03125 7.96875 -27.226562 11.0625 -46.59375 Z M 23.171875 -46.59375 "/></g></g></g><g fill="#ff3131" fill-opacity="1"><g transform="translate(0.422027, 51.838358)"><g><path d="M 42.140625 -30.953125 C 41.191406 -32.609375 39.84375 -33.878906 38.09375 -34.765625 C 36.34375 -35.648438 34.414062 -36.09375 32.3125 -36.09375 C 28.40625 -36.09375 24.988281 -34.585938 22.0625 -31.578125 C 19.132812 -28.566406 17.671875 -25.003906 17.671875 -20.890625 C 17.671875 -17.796875 18.660156 -15.289062 20.640625 -13.375 C 22.617188 -11.457031 25.234375 -10.5 28.484375 -10.5 C 30.460938 -10.5 32.453125 -10.941406 34.453125 -11.828125 C 36.453125 -12.710938 38.210938 -13.921875 39.734375 -15.453125 L 37.390625 -0.921875 C 36.523438 -0.640625 35.007812 -0.210938 32.84375 0.359375 C 30.675781 0.941406 28.523438 1.234375 26.390625 1.234375 C 22.640625 1.234375 19.132812 0.421875 15.875 -1.203125 C 12.625 -2.828125 10 -5.113281 8 -8.0625 C 6 -11.007812 4.976562 -14.441406 4.9375 -18.359375 C 4.9375 -23.628906 6.234375 -28.5 8.828125 -32.96875 C 11.429688 -37.4375 15.03125 -41.03125 19.625 -43.75 C 24.21875 -46.46875 28.941406 -47.828125 33.796875 -47.828125 C 37.265625 -47.828125 40.832031 -47.046875 44.5 -45.484375 Z M 42.140625 -30.953125 "/></g></g></g><g fill="#ff3131" fill-opacity="1"><g transform="translate(39.102985, 51.838358)"><g><path d="M 38.25 -46.59375 L 48.453125 0 L 35.53125 0 L 33.796875 -8.09375 L 17.125 -8.09375 L 12.609375 0 L -0.25 0 L 25.03125 -46.59375 Z M 21.9375 -17.359375 L 32.015625 -17.359375 L 29.421875 -32.203125 L 29.296875 -32.203125 Z M 21.9375 -17.359375 "/></g></g></g><g fill="#ff3131" fill-opacity="1"><g transform="translate(86.002103, 51.838358)"><g><path d="M 29.71875 -46.59375 C 33.925781 -46.59375 37.296875 -45.601562 39.828125 -43.625 C 42.359375 -41.644531 43.625 -38.800781 43.625 -35.09375 C 43.625 -31.144531 42.445312 -27.65625 40.09375 -24.625 C 37.75 -21.59375 34.742188 -19.75 31.078125 -19.09375 L 42.703125 0 L 27.625 0 L 19.03125 -17.921875 L 18.90625 -17.921875 L 16.0625 0 L 3.953125 0 L 11.3125 -46.59375 Z M 20.140625 -25.703125 L 21.8125 -25.703125 C 24.65625 -25.703125 26.859375 -26.300781 28.421875 -27.5 C 29.992188 -28.695312 30.78125 -30.445312 30.78125 -32.75 C 30.78125 -35.800781 28.265625 -37.328125 23.234375 -37.328125 L 22 -37.328125 Z M 20.140625 -25.703125 "/></g></g></g><g fill="#ff3131" fill-opacity="1"><g transform="translate(126.660361, 51.838358)"><g><path d="M 28.546875 -46.59375 C 32.421875 -46.59375 35.890625 -45.738281 38.953125 -44.03125 C 42.023438 -42.320312 44.4375 -39.960938 46.1875 -36.953125 C 47.9375 -33.941406 48.8125 -30.726562 48.8125 -27.3125 C 48.8125 -22.613281 47.546875 -18.148438 45.015625 -13.921875 C 42.484375 -9.703125 39.050781 -6.328125 34.71875 -3.796875 C 30.394531 -1.265625 25.890625 0 21.203125 0 L 3.953125 0 L 11.3125 -46.59375 Z M 17.671875 -10.265625 L 20.015625 -10.265625 C 24.921875 -10.265625 28.828125 -11.710938 31.734375 -14.609375 C 34.640625 -17.515625 36.09375 -21.273438 36.09375 -25.890625 C 36.09375 -29.023438 35.113281 -31.550781 33.15625 -33.46875 C 31.195312 -35.382812 28.28125 -36.34375 24.40625 -36.34375 L 21.8125 -36.34375 Z M 17.671875 -10.265625 "/></g></g></g><g fill="#ff3131" fill-opacity="1"><g transform="translate(169.543074, 51.838358)"><g><path d="M 18.90625 -7.234375 C 18.90625 -4.960938 18.03125 -2.984375 16.28125 -1.296875 C 14.53125 0.390625 12.582031 1.234375 10.4375 1.234375 C 8.707031 1.234375 7.242188 0.660156 6.046875 -0.484375 C 4.859375 -1.640625 4.265625 -3.125 4.265625 -4.9375 C 4.265625 -7.164062 5.140625 -9.101562 6.890625 -10.75 C 8.640625 -12.394531 10.585938 -13.21875 12.734375 -13.21875 C 14.503906 -13.21875 15.972656 -12.648438 17.140625 -11.515625 C 18.316406 -10.390625 18.90625 -8.960938 18.90625 -7.234375 Z M 18.90625 -7.234375 "/></g></g></g><g fill="#ff3131" fill-opacity="1"><g transform="translate(189.377885, 51.838358)"><g><path d="M 37.8125 -46.59375 L 36.21875 -36.34375 L 21.8125 -36.34375 L 20.578125 -28.546875 L 34.234375 -28.546875 L 32.625 -18.296875 L 18.96875 -18.296875 L 17.671875 -10.265625 L 32.078125 -10.265625 L 30.46875 0 L 3.953125 0 L 11.3125 -46.59375 Z M 37.8125 -46.59375 "/></g></g></g><g fill="#ff3131" fill-opacity="1"><g transform="translate(222.003345, 51.838358)"><g><path d="M 23.171875 -46.59375 L 19.34375 -22 C 18.96875 -19.769531 18.78125 -17.957031 18.78125 -16.5625 C 18.78125 -14.21875 19.285156 -12.4375 20.296875 -11.21875 C 21.304688 -10 23.046875 -9.390625 25.515625 -9.390625 C 28.523438 -9.390625 30.820312 -10.367188 32.40625 -12.328125 C 34 -14.285156 35.101562 -17.363281 35.71875 -21.5625 L 39.609375 -46.59375 L 51.71875 -46.59375 L 47.515625 -19.78125 C 46.691406 -14.34375 45.269531 -10.203125 43.25 -7.359375 C 41.238281 -4.515625 38.550781 -2.367188 35.1875 -0.921875 C 31.832031 0.515625 28.054688 1.234375 23.859375 1.234375 C 18.171875 1.234375 13.800781 0.0078125 10.75 -2.4375 C 7.707031 -4.894531 6.1875 -8.46875 6.1875 -13.15625 C 6.1875 -14.019531 6.222656 -14.96875 6.296875 -16 C 6.378906 -17.03125 7.96875 -27.226562 11.0625 -46.59375 Z M 23.171875 -46.59375 "/></g></g></g></g></g></svg>